<svg xmlns="http://www.w3.org/2000/svg" xmlns:xlink="http://www.w3.org/1999/xlink" width="500" zoomAndPan="magnify" viewBox="0 0 375 374.999991" height="500" preserveAspectRatio="xMidYMid meet" version="1.0"><defs><g/></defs><g fill="#ec5ece" fill-opacity="1"><g transform="translate(-9.540321, 299.777529)"><g><path d="M 184.078125 -242.046875 L 184.078125 -87.140625 C 184.078125 -73.054688 181.921875 -60.304688 177.609375 -48.890625 C 173.296875 -37.484375 166.976562 -27.765625 158.65625 -19.734375 C 150.332031 -11.703125 140.144531 -5.53125 128.09375 -1.21875 C 116.050781 3.082031 102.285156 5.234375 86.796875 5.234375 C 71.191406 5.234375 57.710938 3.226562 46.359375 -0.78125 C 35.015625 -4.800781 24.101562 -10.363281 13.625 -17.46875 L 35.453125 -52.734375 C 43.710938 -47.035156 51.453125 -43.050781 58.671875 -40.78125 C 65.890625 -38.507812 74.097656 -37.375 83.296875 -37.375 C 95.753906 -37.375 106.144531 -41.359375 114.46875 -49.328125 C 122.800781 -57.304688 126.96875 -69.679688 126.96875 -86.453125 L 126.96875 -200.140625 L 52.5625 -200.140625 L 52.5625 -242.046875 Z M 184.078125 -242.046875 "/></g></g></g><g fill="#ec5ece" fill-opacity="1"><g transform="translate(174.865679, 299.777529)"><g><path d="M 198.390625 -70.734375 C 198.390625 -55.710938 194.457031 -42.4375 186.59375 -30.90625 C 178.738281 -19.382812 167.476562 -10.363281 152.8125 -3.84375 C 138.144531 2.675781 120.503906 5.9375 99.890625 5.9375 C 77.078125 5.9375 57.957031 2.59375 42.53125 -4.09375 C 27.101562 -10.789062 14.320312 -19.085938 4.1875 -28.984375 L 33.1875 -61.125 C 42.144531 -53.320312 52.035156 -47.296875 62.859375 -43.046875 C 73.691406 -38.796875 85.570312 -36.671875 98.5 -36.671875 C 106.53125 -36.671875 113.570312 -37.832031 119.625 -40.15625 C 125.675781 -42.488281 130.390625 -45.867188 133.765625 -50.296875 C 137.148438 -54.722656 138.84375 -60.078125 138.84375 -66.359375 C 138.84375 -72.296875 137.503906 -77.300781 134.828125 -81.375 C 132.148438 -85.457031 127.632812 -89.128906 121.28125 -92.390625 C 114.9375 -95.648438 106.117188 -98.96875 94.828125 -102.34375 C 75.960938 -108.164062 60.796875 -114.566406 49.328125 -121.546875 C 37.867188 -128.535156 29.546875 -136.628906 24.359375 -145.828125 C 19.179688 -155.023438 16.59375 -165.734375 16.59375 -177.953125 C 16.59375 -192.742188 20.695312 -205.378906 28.90625 -215.859375 C 37.113281 -226.335938 48.144531 -234.34375 62 -239.875 C 75.851562 -245.40625 91.101562 -248.171875 107.75 -248.171875 C 126.5 -248.171875 143.03125 -245.460938 157.34375 -240.046875 C 171.664062 -234.628906 184.066406 -226.914062 194.546875 -216.90625 L 167.484375 -185.8125 C 159.328125 -192.6875 150.535156 -197.78125 141.109375 -201.09375 C 131.679688 -204.414062 122.078125 -206.078125 112.296875 -206.078125 C 105.078125 -206.078125 98.726562 -205.171875 93.25 -203.359375 C 87.78125 -201.554688 83.53125 -198.910156 80.5 -195.421875 C 77.476562 -191.929688 75.96875 -187.566406 75.96875 -182.328125 C 75.96875 -177.203125 77.421875 -172.890625 80.328125 -169.390625 C 83.242188 -165.898438 88.3125 -162.613281 95.53125 -159.53125 C 102.75 -156.445312 112.757812 -152.867188 125.5625 -148.796875 C 140.8125 -144.140625 153.878906 -138.578125 164.765625 -132.109375 C 175.660156 -125.648438 183.988281 -117.53125 189.75 -107.75 C 195.507812 -97.96875 198.390625 -85.628906 198.390625 -70.734375 Z M 198.390625 -70.734375 "/></g></g></g></svg>